GRF
version=1
nRows=27
nColumns=19
inDegrees=no
endheader
time	ground_force_vx	ground_force_vy	ground_force_vz	ground_force_px	ground_force_py	ground_force_pz	ground_torque_x	ground_torque_y	ground_torque_z	1_ground_force_vx	1_ground_force_vy	1_ground_force_vz	1_ground_force_px	1_ground_force_py	1_ground_force_pz	1_ground_torque_x	1_ground_torque_y	1_ground_torque_z
      0.00000000	     -2.09399491	    302.12920382	     18.76117978	      0.11418615	      0.00000000	      0.13047742	     -0.00000000	     -2.54480146	      0.00000000	     79.33241812	    686.91815747	     39.85023856	     -0.21172676	      0.00000000	     -0.06022054	      0.00000000	      4.22628773	     -0.00000000
      0.00100000	     -2.74446929	    302.53508215	     17.00495331	      0.11413190	      0.00000000	      0.13124223	     -0.00000000	     -2.31997907	      0.00000000	     78.79298564	    683.53374988	     39.38935075	     -0.21157281	      0.00000000	     -0.06014580	      0.00000000	      4.11615705	     -0.00000000
      0.00200000	     -3.36675962	    302.91593132	     15.31689141	      0.11408307	      0.00000000	      0.13203530	     -0.00000000	     -2.10784162	      0.00000000	     78.25401163	    680.14814533	     38.95368165	     -0.21142214	      0.00000000	     -0.06008198	      0.00000000	      4.00761132	     -0.00000000
      0.00300000	     -3.96163770	    303.27236807	     13.69570374	      0.11403985	      0.00000000	      0.13285394	     -0.00000000	     -1.90823529	      0.00000000	     77.71556718	    676.76085140	     38.54298143	     -0.21127471	      0.00000000	     -0.06002966	      0.00000000	      3.90090389	     -0.00000000
      0.00400000	     -4.52991961	    303.60504270	     12.14005594	      0.11400238	      0.00000000	      0.13369542	     -0.00000000	     -1.72097722	      0.00000000	     77.17771224	    673.37135403	     38.15695913	     -0.21113048	      0.00000000	     -0.05998942	      0.00000000	      3.79627065	     -0.00000000
      0.00500000	     -5.07246439	    303.91463970	     10.64857301	      0.11397078	      0.00000000	      0.13455691	     -0.00000000	     -1.54585684	      0.00000000	     76.64049480	    669.97911891	     37.79528437	     -0.21098941	      0.00000000	     -0.05996187	      0.00000000	      3.69392987	     -0.00000000
      0.00600000	     -5.59017246	    304.20187824	      9.21984267	      0.11394516	      0.00000000	      0.13543558	     -0.00000000	     -1.38263730	      0.00000000	     76.10395003	    666.58359289	     37.45758929	     -0.21085145	      0.00000000	     -0.05994760	      0.00000000	      3.59408214	     -0.00000000
      0.00700000	     -6.08398386	    304.46751261	      7.85241898	      0.11392559	      0.00000000	      0.13632851	     -0.00000000	     -1.23105703	      0.00000000	     75.56809951	    663.18420572	     37.14347051	     -0.21071652	      0.00000000	     -0.05994720	      0.00000000	      3.49691028	     -0.00000000
      0.00800000	     -6.55487611	    304.71233246	      6.54482590	      0.11391213	      0.00000000	      0.13723280	     -0.00000000	     -1.09083139	      0.00000000	     75.03295061	    659.78037174	     36.85249124	     -0.21058457	      0.00000000	     -0.05996125	      0.00000000	      3.40257941	     -0.00000000
      0.00900000	     -7.00386200	    304.93716296	      5.29556099	      0.11390480	      0.00000000	      0.13814550	     -0.00000000	     -0.96165439	      0.00000000	     74.49849587	    656.37149182	     36.58418354	     -0.21045551	      0.00000000	     -0.05999031	      0.00000000	      3.31123705	     -0.00000000
      0.01000000	     -7.43198695	    305.14286479	      4.10309915	      0.11390362	      0.00000000	      0.13906367	     -0.00000000	     -0.84320051	      0.00000000	     73.96471253	    652.95695535	     36.33805050	     -0.21032928	      0.00000000	     -0.06003494	      0.00000000	      3.22301331	     -0.00000000
      0.01100000	     -7.84032629	    305.33033391	      2.96589630	      0.11390857	      0.00000000	      0.13998438	     -0.00000000	     -0.73512655	      0.00000000	     73.43156212	    649.53614233	     36.11356863	     -0.21020578	      0.00000000	     -0.06009565	      0.00000000	      3.13802108	     -0.00000000
      0.01200000	     -8.22998218	    305.50050131	      1.88239317	      0.11391963	      0.00000000	      0.14090472	     -0.00000000	     -0.63707351	      0.00000000	     72.89899028	    646.10842558	     35.91019018	     -0.21008494	      0.00000000	     -0.06017293	      0.00000000	      3.05635637	     -0.00000000
      0.01300000	     -8.60208043	    305.65433241	      0.85101893	      0.11393675	      0.00000000	      0.14182180	     -0.00000000	     -0.54866859	      0.00000000	     72.36692653	    642.67317295	     35.72734553	     -0.20996665	      0.00000000	     -0.06026724	      0.00000000	      2.97809867	     -0.00000000
      0.01400000	     -8.95776700	    305.79282641	     -0.12980510	      0.11395984	      0.00000000	      0.14273278	     -0.00000000	     -0.46952704	      0.00000000	     71.83528437	    639.22974970	     35.56444552	     -0.20985083	      0.00000000	     -0.06037901	      0.00000000	      2.90331132	     -0.00000000
      0.01500000	     -9.29820440	    305.91701540	     -1.06166194	      0.11398884	      0.00000000	      0.14363488	     -0.00000000	     -0.39925420	      0.00000000	     71.30396138	    635.77752076	     35.42088382	     -0.20973737	      0.00000000	     -0.06050860	      0.00000000	      2.83204203	     -0.00000000
      0.01600000	     -9.62456782	    306.02796325	     -1.94613549	      0.11402362	      0.00000000	      0.14452538	     -0.00000000	     -0.33744740	      0.00000000	     70.77283949	    632.31585312	     35.29603920	     -0.20962618	      0.00000000	     -0.06065635	      0.00000000	      2.76432336	     -0.00000000
      0.01700000	     -9.93804114	    306.12676439	     -2.78480715	      0.11406407	      0.00000000	      0.14540165	     -0.00000000	     -0.28369786	      0.00000000	     70.24178546	    628.84411820	     35.18927779	     -0.20951716	      0.00000000	     -0.06082252	      0.00000000	      2.70017328	     -0.00000000
      0.01800000	    -10.23981284	    306.21454232	     -3.57925262	      0.11411006	      0.00000000	      0.14626113	     -0.00000000	     -0.23759255	      0.00000000	     69.71065147	    625.36169413	     35.09995520	     -0.20941020	      0.00000000	     -0.06100735	      0.00000000	      2.63959577	     -0.00000000
      0.01900000	    -10.53107171	    306.29244793	     -4.33103891	      0.11416145	      0.00000000	      0.14710138	     -0.00000000	     -0.19871604	      0.00000000	     69.17927582	    621.86796809	     35.02741861	     -0.20930520	      0.00000000	     -0.06121099	      0.00000000	      2.58258143	     -0.00000000
      0.02000000	    -10.81300250	    306.36165773	     -5.04172139	      0.11421806	      0.00000000	      0.14792007	     -0.00000000	     -0.16665220	      0.00000000	     68.64748388	    618.36233852	     34.97100873	     -0.20920207	      0.00000000	     -0.06143353	      0.00000000	      2.52910815	     -0.00000000
      0.02100000	    -11.08678153	    306.42337173	     -5.71284120	      0.11427974	      0.00000000	      0.14871497	     -0.00000000	     -0.14098591	      0.00000000	     68.11508909	    614.84421727	     34.93006163	     -0.20910069	      0.00000000	     -0.06167502	      0.00000000	      2.47914179	     -0.00000000
      0.02200000	    -11.35357216	    306.47881132	     -6.34592268	      0.11434630	      0.00000000	      0.14948401	     -0.00000000	     -0.12130460	      0.00000000	     67.58189414	    611.31303168	     34.90391046	     -0.20900097	      0.00000000	     -0.06193541	      0.00000000	      2.43263684	     -0.00000000
      0.02300000	    -11.61452035	    306.52921685	     -6.94247115	      0.11441756	      0.00000000	      0.15022525	     -0.00000000	     -0.10719978	      0.00000000	     67.04769234	    607.76822652	     34.89188701	     -0.20890281	      0.00000000	     -0.06221460	      0.00000000	      2.38953716	     -0.00000000
      0.02400000	    -11.87075013	    306.57584514	     -7.50397087	      0.11449331	      0.00000000	      0.15093688	     -0.00000000	     -0.09826839	      0.00000000	     66.51226902	    604.20926584	     34.89332316	     -0.20880610	      0.00000000	     -0.06251242	      0.00000000	      2.34977667	     -0.00000000
      0.02500000	    -12.12335919	    306.61996677	     -8.03188317	      0.11457337	      0.00000000	      0.15161727	     -0.00000000	     -0.09411407	      0.00000000	     65.97540311	    600.63563461	     34.90755218	     -0.20871075	      0.00000000	     -0.06282863	      0.00000000	      2.31328007	     -0.00000000
      0.02600000	    -12.37341447	    306.66286334	     -8.52764486	      0.11465751	      0.00000000	      0.15226493	     -0.00000000	     -0.09434838	      0.00000000	     65.43686884	    597.04684036	     34.93390982	     -0.20861667	      0.00000000	     -0.06316290	      0.00000000	      2.27996355	     -0.00000000
